<mxfile host="app.diagrams.net" modified="2023-03-06T03:29:58.834Z" agent="5.0 (Windows NT 10.0; Win64; x64) AppleWebKit/537.36 (KHTML, like Gecko) Chrome/110.0.0.0 Safari/537.36" etag="NQVne8yf1x67siXABhx9" version="20.8.23" type="github">
  <diagram name="第 1 页" id="g0eTzI9TPstKGE_aURy5">
    <mxGraphModel dx="1434" dy="764" grid="1" gridSize="10" guides="1" tooltips="1" connect="1" arrows="1" fold="1" page="1" pageScale="1" pageWidth="827" pageHeight="1169" math="0" shadow="0">
      <root>
        <mxCell id="0" />
        <mxCell id="1" parent="0" />
        <mxCell id="9oX1Lf48FP7Iw0Olbuhl-1" value="" style="rounded=0;whiteSpace=wrap;html=1;" vertex="1" parent="1">
          <mxGeometry x="60" y="110" width="750" height="580" as="geometry" />
        </mxCell>
        <mxCell id="9oX1Lf48FP7Iw0Olbuhl-2" value="xxx" style="text;html=1;strokeColor=none;fillColor=none;align=center;verticalAlign=middle;whiteSpace=wrap;rounded=0;" vertex="1" parent="1">
          <mxGeometry x="100" y="140" width="60" height="30" as="geometry" />
        </mxCell>
        <mxCell id="9oX1Lf48FP7Iw0Olbuhl-3" value="" style="rounded=1;whiteSpace=wrap;html=1;" vertex="1" parent="1">
          <mxGeometry x="110" y="190" width="170" height="30" as="geometry" />
        </mxCell>
        <mxCell id="9oX1Lf48FP7Iw0Olbuhl-4" value="" style="triangle;whiteSpace=wrap;html=1;rotation=90;" vertex="1" parent="1">
          <mxGeometry x="245" y="185" width="10" height="40" as="geometry" />
        </mxCell>
        <mxCell id="9oX1Lf48FP7Iw0Olbuhl-5" value="" style="rounded=0;whiteSpace=wrap;html=1;" vertex="1" parent="1">
          <mxGeometry x="110" y="250" width="670" height="410" as="geometry" />
        </mxCell>
        <mxCell id="9oX1Lf48FP7Iw0Olbuhl-6" value="" style="rounded=1;whiteSpace=wrap;html=1;" vertex="1" parent="1">
          <mxGeometry x="730" y="270" width="20" height="20" as="geometry" />
        </mxCell>
        <mxCell id="9oX1Lf48FP7Iw0Olbuhl-7" value="" style="rounded=1;whiteSpace=wrap;html=1;fillColor=#828B96;strokeColor=#6c8ebf;" vertex="1" parent="1">
          <mxGeometry x="730" y="307" width="20" height="20" as="geometry" />
        </mxCell>
        <mxCell id="9oX1Lf48FP7Iw0Olbuhl-8" value="" style="rounded=1;whiteSpace=wrap;html=1;" vertex="1" parent="1">
          <mxGeometry x="730" y="343" width="20" height="20" as="geometry" />
        </mxCell>
        <mxCell id="9oX1Lf48FP7Iw0Olbuhl-9" value="" style="rounded=1;whiteSpace=wrap;html=1;" vertex="1" parent="1">
          <mxGeometry x="730" y="380" width="20" height="20" as="geometry" />
        </mxCell>
      </root>
    </mxGraphModel>
  </diagram>
</mxfile>
